<svg width="28" height="28" viewBox="0 0 28 28" fill="none" xmlns="http://www.w3.org/2000/svg">
    <path d="M14.0049 5.69792C14.4668 5.69792 14.8501 5.31293 14.8501 4.84896C14.8501 4.38499 14.4668 4 14.0049 4C13.543 4 13.1597 4.38499 13.1597 4.84896C13.1597 5.31293 13.543 5.69792 14.0049 5.69792ZM16.8157 6.1619C17.2776 6.1619 17.6609 5.7769 17.6609 5.31293C17.6609 4.84896 17.2776 4.46397 16.8157 4.46397C16.3538 4.46397 15.9705 4.84896 15.9705 5.31293C15.9705 5.7769 16.3538 6.1619 16.8157 6.1619ZM19.371 7.45508C19.8329 7.45508 20.2162 7.07009 20.2162 6.60612C20.2162 6.14215 19.8329 5.75716 19.371 5.75716C18.909 5.75716 18.5258 6.14215 18.5258 6.60612C18.5258 7.07009 18.909 7.45508 19.371 7.45508ZM21.3857 9.48864C21.8476 9.48864 22.2309 9.10365 22.2309 8.63968C22.2309 8.17571 21.8476 7.79072 21.3857 7.79072C20.9238 7.79072 20.5405 8.17571 20.5405 8.63968C20.5405 9.10365 20.9238 9.48864 21.3857 9.48864ZM22.6732 12.0158C23.1351 12.0158 23.5184 11.6308 23.5184 11.1668C23.5184 10.7029 23.1351 10.3179 22.6732 10.3179C22.2112 10.3179 21.828 10.7029 21.828 11.1668C21.828 11.6308 22.2112 12.0158 22.6732 12.0158ZM23.1547 14.849C23.6167 14.849 24 14.464 24 14C24 13.536 23.6167 13.151 23.1547 13.151C22.6929 13.151 22.3095 13.536 22.3095 14C22.3095 14.464 22.6929 14.849 23.1547 14.849ZM22.6732 17.6821C23.1351 17.6821 23.5184 17.2972 23.5184 16.8332C23.5184 16.3692 23.1351 15.9842 22.6732 15.9842C22.2112 15.9842 21.828 16.3692 21.828 16.8332C21.828 17.2972 22.2112 17.6821 22.6732 17.6821ZM21.3857 20.2191C21.8476 20.2191 22.2309 19.8342 22.2309 19.3702C22.2309 18.9062 21.8476 18.5212 21.3857 18.5212C20.9238 18.5212 20.5405 18.9062 20.5405 19.3702C20.5405 19.8342 20.9238 20.2191 21.3857 20.2191ZM19.371 22.2428C19.8329 22.2428 20.2162 21.8578 20.2162 21.3938C20.2162 20.9299 19.8329 20.5449 19.371 20.5449C18.909 20.5449 18.5258 20.9299 18.5258 21.3938C18.5258 21.8578 18.909 22.2428 19.371 22.2428ZM16.8157 23.536C17.2776 23.536 17.6609 23.151 17.6609 22.6871C17.6609 22.2231 17.2776 21.8381 16.8157 21.8381C16.3538 21.8381 15.9705 22.2231 15.9705 22.6871C15.9705 23.151 16.3538 23.536 16.8157 23.536ZM14.0049 24C14.4668 24 14.8501 23.615 14.8501 23.151C14.8501 22.6871 14.4668 22.3021 14.0049 22.3021C13.543 22.3021 13.1597 22.6871 13.1597 23.151C13.1597 23.615 13.543 24 14.0049 24ZM11.1941 23.536C11.656 23.536 12.0393 23.151 12.0393 22.6871C12.0393 22.2231 11.656 21.8381 11.1941 21.8381C10.7223 21.8381 10.3489 22.2231 10.3489 22.6871C10.3489 23.151 10.7223 23.536 11.1941 23.536ZM8.63881 22.2428C9.10073 22.2428 9.48402 21.8578 9.48402 21.3938C9.48402 20.9299 9.10073 20.5449 8.63881 20.5449C8.16707 20.5449 7.79361 20.9299 7.79361 21.3938C7.79361 21.8578 8.16707 22.2428 8.63881 22.2428ZM6.61425 20.2191C7.07616 20.2191 7.45945 19.8342 7.45945 19.3702C7.45945 18.9062 7.07616 18.5212 6.61425 18.5212C6.15233 18.5212 5.76904 18.9062 5.76904 19.3702C5.76904 19.8342 6.15233 20.2191 6.61425 20.2191ZM5.32678 17.6821C5.78869 17.6821 6.17198 17.2972 6.17198 16.8332C6.17198 16.3692 5.78869 15.9842 5.32678 15.9842C4.86486 15.9842 4.48157 16.3692 4.48157 16.8332C4.48157 17.2972 4.86486 17.6821 5.32678 17.6821ZM4.84521 14.849C5.30712 14.849 5.69041 14.464 5.69041 14C5.69041 13.536 5.30712 13.151 4.84521 13.151C4.38329 13.151 4 13.536 4 14C4 14.464 4.38329 14.849 4.84521 14.849ZM5.32678 12.0158C5.78869 12.0158 6.17198 11.6308 6.17198 11.1668C6.17198 10.7029 5.78869 10.3179 5.32678 10.3179C4.86486 10.3179 4.48157 10.7029 4.48157 11.1668C4.48157 11.6308 4.86486 12.0158 5.32678 12.0158ZM6.61425 9.48864C7.07616 9.48864 7.45945 9.10365 7.45945 8.63968C7.45945 8.17571 7.07616 7.79072 6.61425 7.79072C6.15233 7.79072 5.76904 8.17571 5.76904 8.63968C5.76904 9.10365 6.15233 9.48864 6.61425 9.48864ZM8.63881 7.45508C9.10073 7.45508 9.48402 7.07009 9.48402 6.60612C9.48402 6.14215 9.10073 5.75716 8.63881 5.75716C8.16707 5.75716 7.79361 6.14215 7.79361 6.60612C7.79361 7.07009 8.16707 7.45508 8.63881 7.45508ZM11.1941 6.1619C11.656 6.1619 12.0393 5.7769 12.0393 5.31293C12.0393 4.84896 11.656 4.46397 11.1941 4.46397C10.7223 4.46397 10.3489 4.84896 10.3489 5.31293C10.3489 5.7769 10.7223 6.1619 11.1941 6.1619Z" fill="white" fill-opacity="0.85"/>
    </svg>